<svg width="35" height="32" viewBox="0 0 35 32" fill="none" xmlns="http://www.w3.org/2000/svg">
<g clip-path="url(#clip0)">
<path d="M31.1578 5H3.97887C1.8808 5 0.173828 6.57012 0.173828 8.5V23.5C0.173828 25.4299 1.8808 27 3.97887 27H31.1578C33.2558 27 34.9628 25.4299 34.9628 23.5V8.5C34.9628 6.57012 33.2558 5 31.1578 5ZM3.97887 7H31.1578C32.0569 7 32.7885 7.67294 32.7885 8.5V10.5H2.34814V8.5C2.34814 7.67294 3.07973 7 3.97887 7ZM31.1578 25H3.97887C3.07973 25 2.34814 24.3271 2.34814 23.5V12.5H32.7885V23.5C32.7885 24.3271 32.0569 25 31.1578 25Z" fill="black"/>
<path d="M7.78369 22H6.69653C6.09615 22 5.60938 21.5522 5.60938 21V20C5.60938 19.4477 6.09615 19 6.69653 19H7.78369C8.38407 19 8.87084 19.4477 8.87084 20V21C8.87084 21.5522 8.38407 22 7.78369 22Z" fill="black"/>
</g>
<defs>
<clipPath id="clip0">
<rect width="34.789" height="32" fill="white" transform="translate(0.173828)"/>
</clipPath>
</defs>
</svg>
