<svg width="9" height="10" viewBox="0 0 9 10" fill="none" xmlns="http://www.w3.org/2000/svg">
<path d="M1.17378 8.1832C1.85296 8.1832 2.40355 8.73761 2.40355 9.4168C2.40355 9.47682 2.41997 9.52595 2.45298 9.56436C2.48591 9.60301 2.52801 9.62234 2.57928 9.62234H3.49606C3.54364 9.62234 3.58481 9.60301 3.61959 9.56436C3.65437 9.52595 3.6717 9.4768 3.6717 9.4168C3.6717 8.7355 4.224 8.1832 4.9053 8.1832H6.44414C6.49531 8.1832 6.53742 8.16412 6.57042 8.12547C6.60345 8.08685 6.61985 8.03768 6.61985 7.97766V7.15534C6.61985 7.09567 6.60345 7.04618 6.57042 7.00778C6.53751 6.96912 6.49531 6.9498 6.44414 6.9498H4.05065C3.84131 6.9498 3.67161 6.78009 3.67161 6.57075C3.67161 6.36142 3.84131 6.19171 4.05065 6.19171H5.53821C6.27017 6.19171 6.86757 5.93073 7.33069 5.40801C7.79362 4.88584 8.02521 4.21133 8.02521 3.38443C8.02521 2.55808 7.79362 1.88355 7.33069 1.36085C6.86766 0.838667 6.27015 0.577148 5.53821 0.577148H2.57919C2.5279 0.577148 2.4859 0.596458 2.45289 0.634881C2.41997 0.673518 2.40346 0.722988 2.40346 0.782671V3.59386C2.40346 4.273 1.85291 4.82355 1.17378 4.82355C1.1225 4.82355 1.08048 4.84385 1.04748 4.88453C1.01456 4.92522 0.998047 4.9734 0.998047 5.02906V5.98615C0.998047 6.04618 1.01446 6.09534 1.04748 6.13396C1.08049 6.17262 1.12241 6.1917 1.17378 6.1917H2.02451C2.23385 6.1917 2.40355 6.3614 2.40355 6.57074C2.40355 6.78007 2.23385 6.94978 2.02451 6.94978H1.17378C1.1225 6.94978 1.08048 6.9691 1.04748 7.00776C1.01456 7.04616 0.998047 7.09555 0.998047 7.15532V7.97764C0.998047 8.03766 1.01446 8.08683 1.04748 8.12545C1.08048 8.16412 1.12248 8.1832 1.17378 8.1832ZM3.67161 3.38465C3.67161 2.5899 4.31588 1.94563 5.11063 1.94563H5.42841C5.81632 1.94563 6.1292 2.07835 6.36718 2.34387C6.60503 2.60942 6.72401 2.95643 6.72401 3.38454C6.72401 3.81285 6.60503 4.15998 6.36718 4.4252C6.1292 4.69096 5.81631 4.82368 5.42841 4.82368H5.11063C4.31588 4.82368 3.67161 4.1794 3.67161 3.38465Z" fill="#222220"/>
</svg>
