<svg width="35" height="32" viewBox="0 0 35 32" fill="none" xmlns="http://www.w3.org/2000/svg">
<g clip-path="url(#clip0)">
<path d="M22.1246 27.7011H4.25192V4.29933H22.1253C22.5215 4.29933 22.843 4.00357 22.843 3.63915V1.20803C22.843 0.843613 22.5215 0.547852 22.1253 0.547852H0.891549C0.495367 0.547852 0.173828 0.843613 0.173828 1.20803V30.7918C0.173828 31.1562 0.495367 31.452 0.891549 31.452H22.1246C22.5211 31.452 22.8423 31.1562 22.8423 30.7918V28.3613C22.8423 27.9962 22.5215 27.7011 22.1246 27.7011Z" fill="black"/>
<path d="M34.3847 15.6925L24.7235 6.80641C24.4544 6.55851 23.9778 6.55884 23.7087 6.80641L21.4166 8.91503C21.1363 9.17283 21.1363 9.59072 21.4166 9.84852L25.7804 13.8631H6.8896C6.49341 13.8631 6.17188 14.1589 6.17188 14.5233V17.7951C6.17188 18.1596 6.49341 18.4553 6.8896 18.4553H25.7814L21.4177 22.4699C21.1374 22.7277 21.1374 23.1456 21.4177 23.4034L23.7097 25.5123C23.8443 25.6361 24.0273 25.7058 24.2172 25.7058C24.4077 25.7058 24.59 25.6361 24.7246 25.5123L34.3858 16.6263C34.5204 16.5025 34.5961 16.3341 34.5961 16.1595C34.5958 15.9839 34.5193 15.8162 34.3847 15.6925Z" fill="black"/>
</g>
<defs>
<clipPath id="clip0">
<rect width="34.789" height="32" fill="white" transform="translate(0.173828)"/>
</clipPath>
</defs>
</svg>
