<svg width="10" height="10" viewBox="0 0 10 10" fill="none" xmlns="http://www.w3.org/2000/svg">
<path d="M1.02346 8.41147H2.45882V9.68986C2.45882 9.75206 2.47798 9.80297 2.51651 9.84277C2.55494 9.88283 2.60408 9.90286 2.66393 9.90286H3.73396C3.7895 9.90286 3.83755 9.88283 3.87814 9.84277C3.91873 9.80297 3.93896 9.75204 3.93896 9.68986V8.41147H7.17486C7.23458 8.41147 7.28373 8.3917 7.32225 8.35164C7.36081 8.31162 7.37994 8.26067 7.37994 8.19847V7.34629C7.37994 7.28446 7.36081 7.23318 7.32225 7.19338C7.28384 7.15332 7.23458 7.13329 7.17486 7.13329H3.93885V6.34769H6.11748C6.9718 6.34769 7.66907 6.07723 8.20961 5.53554C8.74993 4.99441 9.02023 4.29541 9.02023 3.43849C9.02023 2.58215 8.74993 1.88313 8.20961 1.34145C7.66918 0.800309 6.97179 0.529297 6.11748 0.529297H2.66382C2.60395 0.529297 2.55493 0.549307 2.51641 0.589126C2.47798 0.629165 2.45872 0.680431 2.45872 0.742281V4.92986H1.02346C0.963614 4.92986 0.914571 4.9509 0.876051 4.99305C0.837637 5.03522 0.818359 5.08515 0.818359 5.14283V6.13467C0.818359 6.19687 0.837513 6.24782 0.876051 6.28784C0.914589 6.3279 0.963508 6.34767 1.02346 6.34767H2.45882V7.13327H1.02346C0.963614 7.13327 0.914571 7.1533 0.876051 7.19336C0.837637 7.23316 0.818359 7.28434 0.818359 7.34628V8.19845C0.818359 8.26065 0.837513 8.3116 0.876051 8.35163C0.914571 8.3917 0.963597 8.41147 1.02346 8.41147ZM3.93885 1.94746H5.98933C6.44209 1.94746 6.80727 2.08499 7.08503 2.36016C7.36265 2.63534 7.50152 2.99496 7.50152 3.4386C7.50152 3.88247 7.36265 4.2422 7.08503 4.51705C6.80727 4.79245 6.44207 4.92999 5.98933 4.92999H3.93885V1.94746Z" fill="white"/>
</svg>
