<svg width="35" height="32" viewBox="0 0 35 32" fill="none" xmlns="http://www.w3.org/2000/svg">
<g clip-path="url(#clip0)">
<path d="M34.9628 12.9479V19.0521C34.9628 19.5116 34.558 19.8844 34.0579 19.8844H21.7914V31.1675C21.7914 31.6277 21.386 31.9999 20.8864 31.9999H14.2503C13.751 31.9999 13.3454 31.6276 13.3454 31.1675V19.8844H1.07876C0.578801 19.8844 0.173828 19.5116 0.173828 19.0521V12.9479C0.173828 12.4883 0.578801 12.1156 1.07876 12.1156H13.3454V0.832385C13.3454 0.372322 13.7509 0 14.2503 0H20.8864C21.386 0 21.7914 0.372322 21.7914 0.832385V12.1156H34.0579C34.5581 12.1156 34.9628 12.4883 34.9628 12.9479Z" fill="black"/>
</g>
<defs>
<clipPath id="clip0">
<rect width="34.789" height="32" fill="white" transform="translate(0.173828)"/>
</clipPath>
</defs>
</svg>
