<svg width="32" height="31" viewBox="0 0 32 31"  xmlns="http://www.w3.org/2000/svg">
<path d="M31.5991 15.1152C32.1792 14.4772 32.1232 13.4994 31.4741 12.9317L17.1728 0.41806C16.5237 -0.149604 15.483 -0.137713 14.8475 0.444868L0.497691 13.5989C-0.137775 14.1815 -0.168964 15.158 0.428637 15.7792L0.788408 16.1539C1.38528 16.7751 2.35006 16.8491 2.94192 16.3188L4.01435 15.3584V29.4188C4.01435 30.2814 4.71334 30.9798 5.57537 30.9798H11.169C12.031 30.9798 12.73 30.2814 12.73 29.4188V19.5822H19.8647V29.4188C19.8523 30.2808 20.4691 30.9792 21.3311 30.9792H27.2589C28.121 30.9792 28.82 30.2808 28.82 29.4181V15.5564C28.82 15.5564 29.1162 15.8159 29.4816 16.1371C29.8464 16.4576 30.6126 16.2006 31.1926 15.562L31.5991 15.1152Z"  fill-opacity="0.4"/>
</svg>
