<svg width="35" height="35" viewBox="0 0 35 35" fill="none" xmlns="http://www.w3.org/2000/svg">
<g clip-path="url(#clip0)">
<path d="M2.76324 20.639C2.98703 20.8627 3.24456 20.9746 3.5355 20.9746C3.82644 20.9746 4.08398 20.8627 4.30777 20.639L17.5027 7.44381L30.6981 20.639C30.9218 20.8627 31.1794 20.9746 31.4699 20.9746C31.7613 20.9746 32.0188 20.8627 32.2425 20.639L33.9211 18.96C34.1448 18.7364 34.2559 18.4787 34.2559 18.1882C34.2559 17.8972 34.1441 17.6397 33.9211 17.416L18.2744 1.77008C18.0508 1.54594 17.7936 1.43457 17.5027 1.43457C17.2118 1.43457 16.9541 1.54629 16.7304 1.77008L1.08488 17.4159C0.860741 17.6397 0.749023 17.8968 0.749023 18.1885C0.749023 18.4787 0.861094 18.7363 1.08488 18.96L2.76324 20.639Z" fill="white"/>
<path d="M18.2744 14.6635C18.0508 14.4394 17.7936 14.3276 17.5027 14.3276C17.2118 14.3276 16.9541 14.4397 16.7304 14.6635L1.08488 30.3093C0.860741 30.5331 0.749023 30.7905 0.749023 31.0819C0.749023 31.3726 0.861094 31.63 1.08488 31.8538L2.76324 33.5326C2.98703 33.7564 3.24456 33.8676 3.5355 33.8676C3.82644 33.8676 4.08398 33.7557 4.30777 33.5326L17.5027 20.3371L30.6981 33.5326C30.9218 33.7564 31.1794 33.868 31.4699 33.868C31.7613 33.868 32.0188 33.7565 32.2425 33.5326L33.9211 31.8538C34.1448 31.63 34.2559 31.3725 34.2559 31.0819C34.2559 30.7905 34.1441 30.5331 33.9211 30.3093L18.2744 14.6635Z" fill="white"/>
</g>
<defs>
<clipPath id="clip0">
<rect width="33.507" height="33.507" fill="white" transform="translate(0.749023 0.897949)"/>
</clipPath>
</defs>
</svg>
