<svg width="34" height="34" viewBox="0 0 34 34" fill="none" xmlns="http://www.w3.org/2000/svg">
<g clip-path="url(#clip0)">
<path d="M17.0998 33.5766C26.2288 33.5766 33.6293 26.1761 33.6293 17.0471C33.6293 7.91808 26.2288 0.517578 17.0998 0.517578C7.97082 0.517578 0.570312 7.91808 0.570312 17.0471C0.570312 26.1761 7.97082 33.5766 17.0998 33.5766Z" fill="#222220"/>
<path d="M8.13364 16.6888L24.0708 10.544C24.8105 10.2767 25.4566 10.7244 25.2169 11.8429L25.2183 11.8415L22.5047 24.6257C22.3036 25.5321 21.765 25.7525 21.0115 25.3255L16.8791 22.2799L14.8859 24.2001C14.6655 24.4205 14.4796 24.6064 14.0526 24.6064L14.346 20.401L22.0046 13.4821C22.338 13.1887 21.9303 13.0234 21.4909 13.3154L12.0263 19.2743L7.94631 18.0015C7.0606 17.7205 7.04132 17.1158 8.13364 16.6888Z" fill="white"/>
</g>
<defs>
<clipPath id="clip0">
<rect width="33.059" height="33.059" fill="white" transform="translate(0.570312 0.517578)"/>
</clipPath>
</defs>
</svg>
