<svg width="45" height="34" viewBox="0 0 45 34" fill="none" xmlns="http://www.w3.org/2000/svg">
<g clip-path="url(#clip0)">
<path d="M3.8081 33.5765H10.8206V16.5461L0.802734 9.03271V30.5711C0.802734 32.2341 2.15014 33.5765 3.8081 33.5765Z" fill="#222220"/>
<path d="M34.8613 33.5765H41.8738C43.5368 33.5765 44.8792 32.2291 44.8792 30.5711V9.03271L34.8613 16.5461" fill="#222220"/>
<path d="M34.8613 3.52268V16.5459L44.8792 9.03251V5.02536C44.8792 1.30873 40.6366 -0.810054 37.6663 1.41892" fill="#222220"/>
<path d="M10.8203 16.5462V3.52295L22.8418 12.539L34.8632 3.52295V16.5462L22.8418 25.5623" fill="#222220"/>
<path d="M0.802734 5.02243V9.02958L10.8206 16.543V3.51975L8.0156 1.41599C5.0403 -0.812983 0.802734 1.3058 0.802734 5.02243Z" fill="#222220"/>
</g>
<defs>
<clipPath id="clip0">
<rect width="44.0786" height="33.059" fill="white" transform="translate(0.802734 0.517578)"/>
</clipPath>
</defs>
</svg>
