<svg width="35" height="32" viewBox="0 0 35 32" fill="none" xmlns="http://www.w3.org/2000/svg">
<path d="M18.131 25.9194H16.4507C15.2674 25.9194 14.3057 26.804 14.3057 27.8925V30.0267C14.3057 31.1152 15.2674 31.9998 16.4507 31.9998H18.131C19.3144 31.9998 20.276 31.1152 20.276 30.0267V27.8925C20.276 26.8008 19.3144 25.9194 18.131 25.9194Z" fill="#222220"/>
<path d="M6.2835 9.39842L9.38308 9.75357C10.3662 9.86538 11.2993 9.3458 11.6533 8.49409C12.1001 7.41876 12.7222 6.57034 13.5194 5.95211C14.6492 5.07738 16.0542 4.63673 17.7344 4.63673C19.4755 4.63673 20.8626 5.05765 21.8922 5.89621C22.9219 6.73805 23.4331 7.74432 23.4331 8.92488C23.4331 9.7733 23.1435 10.5494 22.5644 11.2531C22.189 11.7003 21.0342 12.6408 19.1073 14.0779C17.1767 15.515 15.8933 16.8106 15.2498 17.9615C14.592 19.1388 14.3632 20.4443 14.306 21.7532C14.256 22.8745 15.2284 23.8084 16.451 23.8084H18.2028C19.3182 23.8084 20.2406 23.0225 20.3407 22.0031C20.4122 21.2698 20.5445 20.714 20.7447 20.3359C21.0807 19.688 21.9495 18.833 23.3438 17.7676C26.0429 15.7123 27.8018 14.0878 28.6277 12.8908C29.45 11.6971 29.8647 10.431 29.8647 9.09259C29.8647 6.67557 28.7457 4.55452 26.5041 2.73271C24.2661 0.910903 21.2488 0 17.4592 0C13.8555 0 10.949 0.897749 8.73246 2.69654C6.84482 4.22896 5.69722 6.04419 5.29324 8.13894C5.16808 8.75059 5.62211 9.32278 6.2835 9.39842Z" fill="#222220"/>
</svg>
