<svg width="35" height="32" viewBox="0 0 35 32" fill="none" xmlns="http://www.w3.org/2000/svg">
<g clip-path="url(#clip0)">
<path d="M34.527 16.1152C35.1577 15.4772 35.0968 14.4994 34.3911 13.9317L18.8434 1.41806C18.1377 0.850396 17.0063 0.862287 16.3154 1.44487L0.714896 14.5989C0.0240451 15.1815 -0.00986237 16.158 0.639824 16.7792L1.03095 17.1539C1.67984 17.7751 2.72871 17.8491 3.37216 17.3188L4.53805 16.3584V30.4188C4.53805 31.2814 5.29797 31.9798 6.23513 31.9798H12.3163C13.2534 31.9798 14.0133 31.2814 14.0133 30.4188V20.5822H21.7699V30.4188C21.7564 31.2808 22.4269 31.9792 23.3641 31.9792H29.8086C30.7457 31.9792 31.5056 31.2808 31.5056 30.4181V16.5564C31.5056 16.5564 31.8277 16.8159 32.2249 17.1371C32.6215 17.4576 33.4545 17.2006 34.0851 16.562L34.527 16.1152Z" fill="black"/>
</g>
<defs>
<clipPath id="clip0">
<rect width="34.789" height="32" fill="white" transform="translate(0.173828)"/>
</clipPath>
</defs>
</svg>
