<svg width="35" height="20" viewBox="0 0 35 20" fill="none" xmlns="http://www.w3.org/2000/svg">
<path d="M21.8276 12.0767C20.9853 11.6166 20.0194 11.3555 18.9926 11.3555H16.5522C15.4966 11.3555 14.5058 11.6316 13.6478 12.1153C11.8436 13.1309 10.625 15.0648 10.625 17.2827V19.1112H24.9198V17.2827C24.9198 15.036 23.6698 13.0819 21.8276 12.0767Z" fill="white"/>
<path d="M28.5666 9.73096H26.5378C25.3533 9.73096 24.2493 10.0811 23.3232 10.6845C23.7683 10.9763 24.1864 11.3173 24.5719 11.7028C26.062 13.1929 26.8827 15.1745 26.8827 17.2825V18.1424H34.4761V15.6405C34.4761 12.3821 31.825 9.73096 28.5666 9.73096Z" fill="white"/>
<path d="M8.90801 9.73096H6.87926C3.62084 9.73096 0.969727 12.3821 0.969727 15.6405V18.1424H8.66194V17.2825C8.66194 15.1745 9.48325 13.1929 10.9734 11.7028C11.3445 11.3317 11.7456 11.0019 12.1723 10.7172C11.2365 10.0942 10.1141 9.73096 8.90801 9.73096Z" fill="white"/>
<path d="M27.5494 0.843262C27.539 0.843262 27.5282 0.843327 27.5177 0.843458C25.3215 0.861586 23.5504 2.75977 23.5695 5.0747C23.5885 7.37863 25.3734 9.2403 27.5554 9.2403C27.5659 9.2403 27.5766 9.24023 27.5871 9.2401C28.6639 9.2312 29.6688 8.77755 30.4167 7.96258C31.1472 7.16653 31.5444 6.1176 31.5353 5.00886C31.5163 2.70493 29.7314 0.843262 27.5494 0.843262Z" fill="white"/>
<path d="M7.89116 0.843262C7.88075 0.843262 7.86996 0.843327 7.85948 0.843458C5.66334 0.861586 3.89218 2.75977 3.91129 5.0747C3.93026 7.37863 5.71523 9.2403 7.89718 9.2403C7.90765 9.2403 7.91838 9.24023 7.92885 9.2401C9.00566 9.2312 10.0106 8.77755 10.7585 7.96258C11.489 7.16653 11.8863 6.1176 11.8771 5.00886C11.8581 2.70493 10.0732 0.843262 7.89116 0.843262Z" fill="white"/>
<path d="M17.7731 0.190918C15.2411 0.190918 13.1816 2.36691 13.1816 5.04223C13.1816 6.97543 14.2575 8.64816 15.8105 9.42694C16.406 9.72602 17.0716 9.8929 17.7731 9.8929C18.4747 9.8929 19.1403 9.72602 19.7358 9.42694C21.2888 8.64816 22.3647 6.97543 22.3647 5.04223C22.3647 2.36691 20.3052 0.190918 17.7731 0.190918Z" fill="white"/>
</svg>
