<svg width="345" height="252" viewBox="0 0 345 252" fill="none" xmlns="http://www.w3.org/2000/svg">
<g clip-path="url(#clip0)" filter="url(#filter0_i)">
<path d="M313.601 0.832031H31.5974C14.2922 0.832031 0.263672 14.8793 0.263672 32.2075V220.46C0.263672 237.788 14.2922 251.835 31.5974 251.835H313.601C330.906 251.835 344.934 237.788 344.934 220.46V32.2075C344.934 14.8793 330.906 0.832031 313.601 0.832031Z" fill="#EA0042"/>
<g filter="url(#filter1_d)">
<path d="M192.459 183.556L209.828 153.415H175.08L192.459 183.556ZM149.252 183.556L166.622 153.415H131.883L149.252 183.556ZM170.858 155.173L188.236 185.314H153.488L170.858 155.173ZM214.112 145.99L231.482 115.849H196.734L214.112 145.99ZM193.193 118.749L210.563 148.89H175.823L193.193 118.749ZM127.603 146.003L110.234 115.862H144.982L127.603 146.003ZM148.531 118.749L131.153 148.89H165.901L148.531 118.749ZM93.0205 126.464L62.9316 109.056V143.864L93.0205 126.464ZM93.0205 171.684L62.9316 154.285V189.084L93.0205 171.684ZM62.9361 149.074L93.016 131.675V166.473L62.9361 149.074ZM93.0205 80.9905L62.9316 63.582V98.3895L93.0205 80.9905ZM282.267 126.464L252.177 109.056V143.864L282.267 126.464ZM282.267 171.684L252.177 154.285V189.084L282.267 171.684ZM252.182 149.074L282.262 131.675V166.473L252.182 149.074ZM282.267 80.9905L252.177 63.582V98.3895L282.267 80.9905Z" fill="white"/>
</g>
</g>
<defs>
<filter id="filter0_i" x="0.263672" y="0.832031" width="344.671" height="254.064" filterUnits="userSpaceOnUse" color-interpolation-filters="sRGB">
<feFlood flood-opacity="0" result="BackgroundImageFix"/>
<feBlend mode="normal" in="SourceGraphic" in2="BackgroundImageFix" result="shape"/>
<feColorMatrix in="SourceAlpha" type="matrix" values="0 0 0 0 0 0 0 0 0 0 0 0 0 0 0 0 0 0 127 0" result="hardAlpha"/>
<feOffset dy="3.06102"/>
<feGaussianBlur stdDeviation="6.12203"/>
<feComposite in2="hardAlpha" operator="arithmetic" k2="-1" k3="1"/>
<feColorMatrix type="matrix" values="0 0 0 0 0 0 0 0 0 0 0 0 0 0 0 0 0 0 0.25 0"/>
<feBlend mode="normal" in2="shape" result="effect1_innerShadow"/>
</filter>
<filter id="filter1_d" x="56.8096" y="57.46" width="231.579" height="137.746" filterUnits="userSpaceOnUse" color-interpolation-filters="sRGB">
<feFlood flood-opacity="0" result="BackgroundImageFix"/>
<feColorMatrix in="SourceAlpha" type="matrix" values="0 0 0 0 0 0 0 0 0 0 0 0 0 0 0 0 0 0 127 0" result="hardAlpha"/>
<feOffset/>
<feGaussianBlur stdDeviation="3.06102"/>
<feComposite in2="hardAlpha" operator="out"/>
<feColorMatrix type="matrix" values="0 0 0 0 0 0 0 0 0 0 0 0 0 0 0 0 0 0 0.48 0"/>
<feBlend mode="normal" in2="BackgroundImageFix" result="effect1_dropShadow"/>
<feBlend mode="normal" in="SourceGraphic" in2="effect1_dropShadow" result="shape"/>
</filter>
<clipPath id="clip0">
<rect width="344.671" height="251.003" fill="white" transform="translate(0.263672 0.832031)"/>
</clipPath>
</defs>
</svg>
