<svg width="294" height="50" viewBox="0 0 294 50" fill="none" xmlns="http://www.w3.org/2000/svg">
<g clip-path="url(#clip0)">
<path d="M97.0258 6.65772C92.794 6.656 88.6567 7.91956 85.1366 10.2887C81.6166 12.6579 78.8718 16.0264 77.2492 19.9684C75.6266 23.9105 75.199 28.2492 76.0203 32.4363C76.8417 36.6234 78.8753 40.471 81.864 43.4928C84.8527 46.5146 88.6624 48.575 92.8117 49.4136C96.9611 50.2522 101.264 49.8315 105.176 48.2045C109.088 46.5774 112.435 43.8172 114.792 40.2726C117.15 36.728 118.412 32.5581 118.421 28.2898C118.427 25.4518 117.878 22.6406 116.805 20.0169C115.732 17.3932 114.158 15.0085 112.17 12.9993C110.183 10.9902 107.823 9.39588 105.224 8.30772C102.625 7.21955 99.8395 6.65886 97.0258 6.65772Z" fill="#222220"/>
<path d="M49.2304 6.65822C46.2329 6.65325 43.2803 7.39282 40.6333 8.8116C37.9864 10.2304 35.7266 12.2847 34.0534 14.7932C31.8728 11.5228 28.7112 9.04277 25.0316 7.71635C21.3521 6.38993 17.3482 6.28689 13.6064 7.42232C9.86461 8.55776 6.58169 10.872 4.23861 14.026C1.89553 17.1799 0.615457 21.0078 0.585938 24.9488H0.585938V25.115V48.5666H6.84753V25.0188C6.86018 21.7964 8.14146 18.7111 10.4095 16.4416C12.6776 14.172 15.7466 12.9042 18.9414 12.9169C22.1363 12.9297 25.1952 14.222 27.4454 16.5096C29.6955 18.7972 30.9526 21.8927 30.9399 25.115V48.5666H37.1842V25.0713C37.2684 21.9065 38.574 18.8999 40.8231 16.6914C43.0722 14.483 46.0871 13.2473 49.226 13.2473C52.3649 13.2473 55.3798 14.483 57.6289 16.6914C59.878 18.8999 61.1837 21.9065 61.2679 25.0713V48.5666H67.5295V24.9488C67.4883 20.0819 65.5419 15.4286 62.1144 12.0027C58.6868 8.57672 54.0559 6.65574 49.2304 6.65822Z" fill="#222220"/>
<path d="M144.681 6.66646C139.882 6.70073 135.289 8.63703 131.893 12.0574C128.496 15.4778 126.57 20.1079 126.529 24.9483V25.1145V48.5661H132.791V25.0183C132.814 21.8195 134.087 18.759 136.335 16.5019C138.582 14.2449 141.622 12.9737 144.794 12.9645H145.149V6.65771H144.69L144.681 6.66646Z" fill="#222220"/>
<path d="M172.059 6.71046C168.259 6.71033 164.527 7.73055 161.248 9.66631C157.968 11.6021 155.259 14.3836 153.397 17.7251C151.536 21.0666 150.591 24.8476 150.658 28.6797C150.725 32.5117 151.802 36.2568 153.779 39.5299C155.756 42.8031 158.561 45.4865 161.906 47.3044C165.252 49.1222 169.016 50.009 172.814 49.8737C176.612 49.7384 180.305 48.5858 183.515 46.5343C186.724 44.4829 189.335 41.6065 191.078 38.2008L185.605 35.148C184.13 38.1182 181.734 40.5221 178.782 41.9952C175.83 43.4684 172.482 43.9304 169.245 43.3112C166.009 42.692 163.062 41.0255 160.849 38.5641C158.637 36.1028 157.281 32.9811 156.986 29.6721H193.411C193.411 29.2348 193.48 28.7974 193.48 28.3425C193.486 25.5024 192.936 22.689 191.862 20.0636C190.787 17.4382 189.21 15.0523 187.22 13.0428C185.23 11.0333 182.867 9.43954 180.265 8.35292C177.663 7.2663 174.875 6.70815 172.059 6.71046ZM157.602 23.7065C158.569 20.6046 160.492 17.8948 163.091 15.9712C165.691 14.0475 168.831 13.0103 172.055 13.0103C175.278 13.0103 178.418 14.0475 181.018 15.9712C183.617 17.8948 185.54 20.6046 186.507 23.7065H157.602Z" fill="#222220"/>
<path d="M205.859 41.3237C205.071 41.322 204.3 41.556 203.645 41.9961C202.989 42.4363 202.477 43.0627 202.175 43.7962C201.872 44.5297 201.792 45.3373 201.945 46.1167C202.097 46.8961 202.476 47.6123 203.032 48.1747C203.588 48.7371 204.298 49.1203 205.07 49.276C205.842 49.4316 206.643 49.3526 207.371 49.049C208.099 48.7453 208.721 48.2307 209.159 47.5703C209.597 46.9098 209.831 46.1332 209.831 45.3388C209.831 44.2754 209.412 43.2555 208.668 42.5028C207.923 41.7501 206.913 41.3261 205.859 41.3237Z" fill="#222220"/>
<path d="M228.77 0.298828H222.509V6.61438H216.238V12.5451H222.509V30.1096V30.2758C222.549 35.1163 224.476 39.7464 227.872 43.1668C231.268 46.5872 235.861 48.5234 240.66 48.5577H241.12V42.2859H240.816C237.645 42.2768 234.605 41.0055 232.357 38.7485C230.11 36.4914 228.836 33.4309 228.814 30.2321V12.5451H241.172V6.61438H228.77V0.298828Z" fill="#222220"/>
<path d="M286.8 6.69347L270.278 41.2716L253.757 6.69347L253.636 6.61475H246.732L266.749 48.5931H273.808L293.833 6.69347H286.8Z" fill="#222220"/>
</g>
<defs>
<clipPath id="clip0">
<rect width="293.245" height="49.5885" fill="white" transform="translate(0.585938 0.29834)"/>
</clipPath>
</defs>
</svg>
