<svg width="297" height="252" viewBox="0 0 297 252" fill="none" xmlns="http://www.w3.org/2000/svg">
<g filter="url(#filter0_d)">
<path d="M848.667 216.355H817.855L776.533 82.211H809.457L833.261 180.726L857.073 82.211H889.99L848.675 216.363L848.667 216.355ZM906.802 82.211V216.355H936.215V170.93H956.523C981.741 170.93 996.447 154.163 996.447 126.913C996.447 98.9632 981.042 82.1961 954.425 82.1961H906.802V82.211ZM953.726 147.893H936.914V106.665H953.726C962.831 106.665 967.034 112.256 967.034 126.928C967.034 141.6 962.831 147.893 953.719 147.893H953.726ZM1084 156.273V82.211H1109.9V216.355H1089.6L1043.37 139.491V216.355H1017.45V82.211H1039.16L1084 156.273ZM116.394 124.371L143.65 58.8235L186.29 162.721L203.756 131.342L257.584 251.284C282.05 223.393 296.02 187.831 296.02 150.174C297.426 69.2834 232.418 1.64083 150.635 0.246674C68.8751 -1.14748 1.76178 63.6993 0.363281 145.306V150.875C0.363281 187.839 13.6416 223.401 38.8073 251.299L103.808 104.16L116.394 124.379V124.371Z" fill="#077CC6"/>
</g>
<defs>
<filter id="filter0_d" x="-2.08553" y="0.224609" width="1114.44" height="256.584" filterUnits="userSpaceOnUse" color-interpolation-filters="sRGB">
<feFlood flood-opacity="0" result="BackgroundImageFix"/>
<feColorMatrix in="SourceAlpha" type="matrix" values="0 0 0 0 0 0 0 0 0 0 0 0 0 0 0 0 0 0 127 0" result="hardAlpha"/>
<feOffset dy="3.06102"/>
<feGaussianBlur stdDeviation="1.22441"/>
<feComposite in2="hardAlpha" operator="out"/>
<feColorMatrix type="matrix" values="0 0 0 0 0 0 0 0 0 0 0 0 0 0 0 0 0 0 0.25 0"/>
<feBlend mode="normal" in2="BackgroundImageFix" result="effect1_dropShadow"/>
<feBlend mode="normal" in="SourceGraphic" in2="effect1_dropShadow" result="shape"/>
</filter>
</defs>
</svg>
