<svg width="99" height="72" viewBox="0 0 99 72" fill="none" xmlns="http://www.w3.org/2000/svg">
<g clip-path="url(#clip0)">
<path d="M89.8388 0.165527H9.69579C4.77782 0.165527 0.791016 4.17413 0.791016 9.119V62.8398C0.791016 67.7847 4.77782 71.7933 9.69579 71.7933H89.8388C94.7568 71.7933 98.7436 67.7847 98.7436 62.8398V9.119C98.7436 4.17413 94.7568 0.165527 89.8388 0.165527Z" fill="white"/>
<path d="M55.4102 52.3092L60.3465 43.7081H50.4713L55.4102 52.3092ZM43.1313 52.3092L48.0676 43.7081H38.195L43.1313 52.3092ZM49.2714 44.2097L54.2102 52.8108H44.3351L49.2714 44.2097ZM61.5639 41.5891L66.5002 32.988H56.6251L61.5639 41.5891ZM55.6188 33.8155L60.5551 42.4166H50.6825L55.6188 33.8155ZM36.9788 41.5928L32.0425 32.9915H41.9177L36.9788 41.5928ZM42.9263 33.8155L37.9875 42.4166H47.8626L42.9263 33.8155ZM27.1506 36.0172L18.5996 31.0494V40.9824L27.1506 36.0172ZM27.1506 48.9214L18.5996 43.9564V53.8867L27.1506 48.9214ZM18.6009 42.4692L27.1493 37.5041V47.4344L18.6009 42.4692ZM27.1506 23.0405L18.5996 18.0728V28.0056L27.1506 23.0405ZM80.9328 36.0172L72.3817 31.0494V40.9824L80.9328 36.0172ZM80.9328 48.9214L72.3817 43.9564V53.8867L80.9328 48.9214ZM72.3829 42.4692L80.9315 37.5041V47.4344L72.3829 42.4692ZM80.9328 23.0405L72.3817 18.0728V28.0056L80.9328 23.0405Z" fill="#222220"/>
</g>
<defs>
<clipPath id="clip0">
<rect width="97.9526" height="71.6278" fill="white" transform="translate(0.791016 0.165527)"/>
</clipPath>
</defs>
</svg>
