<svg width="173" height="30" viewBox="0 0 173 30" fill="none" xmlns="http://www.w3.org/2000/svg">
<g clip-path="url(#clip0)">
<path d="M56.6337 3.80957C54.1511 3.80855 51.724 4.55733 49.659 5.96129C47.594 7.36525 45.9838 9.36137 45.032 11.6974C44.0801 14.0334 43.8292 16.6045 44.3111 19.0858C44.7929 21.567 45.9859 23.8471 47.7392 25.6378C49.4925 27.4284 51.7274 28.6494 54.1615 29.1464C56.5957 29.6434 59.1198 29.394 61.4149 28.4299C63.71 27.4657 65.6731 25.83 67.0561 23.7295C68.4391 21.629 69.1799 19.1579 69.1849 16.6286C69.1883 14.9468 68.8661 13.2809 68.2369 11.7261C67.6077 10.1713 66.6838 8.7582 65.5181 7.56758C64.3523 6.37695 62.9676 5.43219 61.4431 4.78735C59.9186 4.14251 58.2843 3.81025 56.6337 3.80957Z" fill="white"/>
<path d="M28.5953 3.80955C26.8369 3.8066 25.1047 4.24486 23.552 5.08562C21.9992 5.92638 20.6734 7.14377 19.6919 8.63028C18.4127 6.69228 16.5579 5.22261 14.3994 4.43658C12.2409 3.65056 9.89198 3.5895 7.6969 4.26235C5.50182 4.9352 3.57593 6.30659 2.20139 8.17561C0.826851 10.0446 0.0759109 12.313 0.0585938 14.6484H0.0585938V14.7469V28.6441H3.73189V14.6899C3.73931 12.7803 4.49096 10.952 5.82148 9.60708C7.152 8.26216 8.95241 7.51084 10.8266 7.5184C12.7009 7.52596 14.4954 8.29179 15.8154 9.6474C17.1354 11.003 17.8728 12.8374 17.8654 14.7469V28.6441H21.5285V14.721C21.5779 12.8456 22.3439 11.0638 23.6633 9.75516C24.9827 8.44646 26.7514 7.71417 28.5928 7.71417C30.4341 7.71417 32.2028 8.44646 33.5222 9.75516C34.8416 11.0638 35.6076 12.8456 35.657 14.721V28.6441H39.3303V14.6484C39.3061 11.7643 38.1643 9.00682 36.1536 6.97663C34.1428 4.94643 31.4261 3.80807 28.5953 3.80955Z" fill="white"/>
<path d="M84.5899 3.81475C81.7745 3.83506 79.0799 4.9825 77.0877 7.00939C75.0954 9.03628 73.9654 11.78 73.9414 14.6485V14.7469V28.6441H77.6147V14.6899C77.6281 12.7943 78.3752 10.9807 79.6937 9.64318C81.0122 8.30567 82.7954 7.55235 84.656 7.54694H84.8646V3.80957H84.595L84.5899 3.81475Z" fill="white"/>
<path d="M100.652 3.84034C98.4233 3.84026 96.2342 4.44484 94.3103 5.59195C92.3863 6.73907 90.7967 8.38737 89.7049 10.3675C88.6131 12.3477 88.0583 14.5883 88.0977 16.8591C88.137 19.13 88.769 21.3493 89.9287 23.2889C91.0884 25.2286 92.734 26.8187 94.6965 27.896C96.659 28.9732 98.8676 29.4988 101.095 29.4186C103.323 29.3384 105.49 28.6553 107.373 27.4397C109.256 26.224 110.787 24.5195 111.81 22.5013L108.599 20.6922C107.734 22.4523 106.328 23.8769 104.596 24.7498C102.865 25.6228 100.9 25.8966 99.002 25.5297C97.1035 25.1628 95.3743 24.1752 94.0765 22.7166C92.7786 21.258 91.9829 19.4081 91.8101 17.4473H113.178C113.178 17.1881 113.219 16.9289 113.219 16.6594C113.222 14.9763 112.9 13.3091 112.27 11.7533C111.639 10.1975 110.714 8.78367 109.547 7.59284C108.379 6.402 106.993 5.45757 105.467 4.81365C103.94 4.16972 102.304 3.83897 100.652 3.84034ZM92.1713 13.9121C92.7388 12.0739 93.867 10.4681 95.3918 9.32817C96.9167 8.18822 98.7586 7.57356 100.65 7.57356C102.541 7.57356 104.383 8.18822 105.908 9.32817C107.433 10.4681 108.561 12.0739 109.129 13.9121H92.1713Z" fill="white"/>
<path d="M120.477 24.3521C120.015 24.351 119.563 24.4897 119.178 24.7505C118.794 25.0113 118.493 25.3826 118.316 25.8172C118.138 26.2519 118.091 26.7304 118.181 27.1923C118.271 27.6542 118.493 28.0786 118.819 28.4119C119.145 28.7451 119.561 28.9723 120.015 29.0645C120.468 29.1567 120.937 29.1099 121.364 28.93C121.791 28.75 122.156 28.4451 122.413 28.0537C122.67 27.6623 122.807 27.2021 122.807 26.7313C122.807 26.1012 122.562 25.4968 122.125 25.0508C121.688 24.6047 121.096 24.3534 120.477 24.3521Z" fill="white"/>
<path d="M133.922 0.0410156H130.249V3.78357H126.57V7.29804H130.249V17.7067V17.8052C130.273 20.6736 131.403 23.4174 133.395 25.4442C135.387 27.4711 138.082 28.6186 140.897 28.6389H141.167V24.9222H140.989C139.128 24.9168 137.345 24.1635 136.026 22.826C134.708 21.4885 133.961 19.6749 133.947 17.7793V7.29804H141.197V3.78357H133.922V0.0410156Z" fill="white"/>
<path d="M167.96 3.83034L158.268 24.3211L148.576 3.83034L148.505 3.78369H144.455L156.197 28.6597H160.339L172.086 3.83034H167.96Z" fill="white"/>
</g>
<defs>
<clipPath id="clip0">
<rect width="172.029" height="29.3858" fill="white" transform="translate(0.0585938 0.0410156)"/>
</clipPath>
</defs>
</svg>
