<svg width="86" height="72" viewBox="0 0 86 72" fill="none" xmlns="http://www.w3.org/2000/svg">
<g clip-path="url(#clip0)">
<path d="M242.896 61.7759H234.093L222.286 23.6382H231.693L238.494 51.6464L245.298 23.6382H254.702L242.898 61.7781L242.896 61.7759ZM259.506 23.6382V61.7759H267.91V48.8613H273.712C280.917 48.8613 285.119 44.0943 285.119 36.3472C285.119 28.4009 280.717 23.6339 273.113 23.6339H259.506V23.6382ZM272.913 42.3117H268.109V30.5904H272.913C275.514 30.5904 276.715 32.1801 276.715 36.3515C276.715 40.5228 275.514 42.3117 272.911 42.3117H272.913ZM310.133 44.6942V23.6382H317.535V61.7759H311.733L298.526 39.923V61.7759H291.121V23.6382H297.323L310.133 44.6942ZM33.6752 35.6244L41.4626 16.989L53.6453 46.5276L58.6357 37.6063L74.015 71.7062C81.0054 63.7768 84.9969 53.6664 84.9969 42.9603C85.3986 19.9628 66.8248 0.731738 43.4583 0.335375C20.0982 -0.0609888 0.92301 18.3752 0.523438 41.5762V43.1596C0.523438 53.6685 4.31725 63.7789 11.5074 71.7105L30.079 29.8782L33.6752 35.6266V35.6244Z" fill="white"/>
</g>
<defs>
<clipPath id="clip0">
<rect width="84.4841" height="71.6278" fill="white" transform="translate(0.523438 0.329102)"/>
</clipPath>
</defs>
</svg>
